<?xml version="1.0" standalone="no"?>
<!DOCTYPE svg PUBLIC "-//W3C//DTD SVG 20010904//EN"
 "http://www.w3.org/TR/2001/REC-SVG-20010904/DTD/svg10.dtd">
<svg version="1.0" xmlns="http://www.w3.org/2000/svg"
 width="273.000000pt" height="100.000000pt" viewBox="0 0 273.000000 100.000000"
 preserveAspectRatio="xMidYMid meet">

<g transform="translate(0.000000,100.000000) scale(0.100000,-0.100000)"
fill="#000000" stroke="none">
<path d="M660 722 c-8 -2 -24 -13 -35 -23 -18 -16 -24 -17 -46 -5 -44 23 -87
25 -105 5 -18 -20 -24 -16 63 -49 l26 -11 -43 -44 c-24 -25 -52 -45 -61 -45
-9 0 -22 -7 -30 -16 -10 -13 -10 -17 2 -25 8 -5 19 -9 25 -9 6 0 17 -13 24
-30 7 -17 15 -30 19 -30 14 0 31 25 31 45 0 19 66 95 82 95 4 0 14 -20 24 -45
9 -25 20 -45 24 -45 14 0 32 30 27 45 -4 8 -2 17 4 21 6 4 4 10 -5 17 -26 21
-30 61 -7 81 36 33 23 82 -19 68z m30 -27 c0 -16 -160 -179 -168 -171 -2 3 1
12 8 21 24 29 4 25 -28 -6 -19 -19 -38 -29 -47 -25 -23 8 -18 26 8 26 15 0 50
28 107 85 80 80 120 104 120 70z m-170 -3 c0 -5 14 -9 30 -9 35 0 48 -9 34
-23 -7 -7 -26 -5 -57 7 -49 18 -61 33 -27 33 11 0 20 -4 20 -8z m144 -125 c1
-13 6 -29 10 -36 10 -15 -1 -28 -13 -15 -17 19 -33 74 -26 91 6 17 7 17 16 0
6 -10 12 -28 13 -40z m-150 -98 c-9 -15 -21 -10 -27 10 -7 29 15 47 25 20 5
-11 6 -25 2 -30z"/>
<path d="M870 678 c0 -30 17 -38 26 -13 4 8 10 12 15 9 12 -7 11 -71 -1 -79
-23 -14 -9 -35 24 -35 l34 0 -5 63 c-4 56 -3 60 11 43 17 -21 36 -14 36 14 0
24 -21 30 -87 27 -51 -2 -53 -3 -53 -29z"/>
<path d="M1122 698 c5 -15 37 -18 41 -3 1 6 -9 12 -22 13 -16 3 -22 -1 -19
-10z"/>
<path d="M1334 699 c-3 -6 -1 -16 5 -22 14 -14 15 -84 1 -92 -21 -13 -9 -25
26 -25 34 0 35 1 29 30 -6 26 -4 30 15 30 19 0 21 -4 15 -30 -6 -28 -5 -30 22
-30 l28 0 0 70 c0 58 -3 71 -17 76 -26 8 -39 -4 -32 -32 5 -20 3 -24 -16 -24
-18 0 -21 4 -16 24 4 17 1 26 -10 30 -24 9 -42 7 -50 -5z"/>
<path d="M1055 663 c-29 -4 -30 -6 -30 -53 0 -48 1 -50 28 -50 27 0 28 2 22
30 -5 22 -3 32 9 36 16 6 23 46 9 42 -5 0 -21 -3 -38 -5z"/>
<path d="M1523 662 c-7 -4 -12 -16 -12 -27 1 -11 -2 -30 -6 -42 -9 -28 17 -40
76 -35 30 3 39 8 35 19 -3 8 -6 25 -6 38 0 43 -51 70 -87 47z m34 -28 c-3 -3
-12 -4 -19 -1 -8 3 -5 6 6 6 11 1 17 -2 13 -5z m3 -44 c0 -5 -4 -10 -10 -10
-5 0 -10 5 -10 10 0 6 5 10 10 10 6 0 10 -4 10 -10z"/>
<path d="M1815 662 c-32 -7 -45 -22 -45 -53 0 -33 27 -52 68 -47 30 3 32 23 3
23 -11 0 -23 3 -27 8 -4 4 9 7 30 7 33 0 37 3 34 21 -4 27 -36 47 -63 41z m25
-32 c0 -5 -7 -10 -16 -10 -8 0 -12 5 -9 10 3 6 10 10 16 10 5 0 9 -4 9 -10z"/>
<path d="M1930 663 c-35 -4 -35 -4 -35 -53 0 -50 0 -50 33 -50 31 0 42 12 22
25 -16 10 -12 45 5 45 10 0 15 -11 15 -35 0 -30 3 -35 24 -35 23 0 24 3 19 43
-6 45 -19 68 -37 65 -6 -1 -27 -3 -46 -5z"/>
<path d="M340 533 l0 -129 63 -30 62 -31 70 24 70 23 60 -24 60 -24 3 131 c3
144 1 157 -25 157 -17 -1 -17 -1 0 -11 15 -9 17 -27 17 -136 0 -96 -3 -124
-12 -120 -7 3 -32 12 -55 22 l-42 17 -4 71 -3 72 -2 -72 -2 -71 -52 -18 c-29
-9 -58 -19 -65 -21 -8 -3 -13 12 -16 44 l-3 48 -2 -47 c-1 -27 -4 -48 -6 -48
-2 0 -27 11 -55 26 l-51 25 0 115 c0 85 3 114 13 114 6 0 33 -11 58 -23 44
-22 46 -22 75 -5 16 10 22 18 14 18 -8 0 -21 -4 -29 -9 -13 -9 -27 -5 -128 36
-10 4 -13 -25 -13 -124z"/>
<path d="M1124 610 c0 -46 2 -50 24 -50 20 0 23 4 18 23 -3 12 -6 34 -6 50 0
19 -5 27 -18 27 -15 0 -18 -8 -18 -50z"/>
<path d="M1195 590 l0 -70 28 0 c24 0 27 3 22 20 -5 17 -2 20 25 20 37 0 55
34 40 75 -8 22 -15 25 -62 25 l-53 0 0 -70z m75 20 c0 -11 -7 -20 -15 -20 -15
0 -21 21 -8 33 12 13 23 7 23 -13z"/>
<path d="M1630 656 c0 -2 12 -25 26 -50 32 -57 50 -57 81 -1 28 52 28 55 -2
55 -20 0 -25 -5 -25 -25 0 -14 -5 -25 -11 -25 -7 0 -9 10 -5 25 6 23 4 25 -29
25 -19 0 -35 -2 -35 -4z"/>
<path d="M862 418 c3 -39 6 -43 31 -46 15 -2 27 1 27 6 0 5 -7 9 -16 8 -26 -2
-28 22 -2 27 l23 4 -22 2 c-13 0 -23 7 -23 15 0 8 10 17 23 19 15 3 12 5 -11
6 -33 1 -33 1 -30 -41z"/>
<path d="M1080 421 c0 -23 4 -41 8 -41 12 0 14 68 2 75 -6 4 -10 -9 -10 -34z"/>
<path d="M1351 424 c-1 -47 22 -66 48 -39 12 12 13 19 5 33 -6 9 -17 17 -25
17 -8 0 -17 7 -21 15 -4 8 -7 -3 -7 -26z m35 -30 c-5 -13 -10 -14 -18 -6 -6 6
-8 18 -4 28 5 13 10 14 18 6 6 -6 8 -18 4 -28z"/>
<path d="M1760 446 c0 -8 -7 -13 -16 -12 -26 2 -42 -31 -23 -49 26 -26 49 -8
49 36 0 21 -2 39 -5 39 -3 0 -5 -6 -5 -14z m-4 -52 c-5 -13 -10 -14 -18 -6 -6
6 -8 18 -4 28 5 13 10 14 18 6 6 -6 8 -18 4 -28z"/>
<path d="M1831 424 c-1 -47 22 -66 48 -39 12 12 13 19 5 33 -6 9 -17 17 -25
17 -8 0 -17 7 -21 15 -4 8 -7 -3 -7 -26z m38 -31 c-15 -18 -34 -1 -25 22 5 14
9 15 21 5 12 -10 13 -16 4 -27z"/>
<path d="M2179 448 c0 -7 -2 -25 -3 -40 -1 -16 2 -28 6 -28 4 0 8 18 8 40 0
22 -2 40 -5 40 -3 0 -5 -6 -6 -12z"/>
<path d="M944 413 c1 -22 6 -28 25 -30 16 -1 20 2 12 10 -7 7 -7 16 1 31 10
18 9 19 -4 9 -10 -9 -18 -9 -25 -2 -7 7 -10 1 -9 -18z"/>
<path d="M1011 391 c1 -25 3 -38 6 -29 2 9 10 15 17 12 7 -3 19 2 26 11 18 21
2 50 -29 51 -19 1 -21 -4 -20 -45z m35 3 c-5 -13 -10 -14 -18 -6 -6 6 -8 18
-4 28 5 13 10 14 18 6 6 -6 8 -18 4 -28z"/>
<path d="M1122 428 c-16 -16 -15 -33 2 -47 22 -18 48 -2 44 28 -3 28 -27 38
-46 19z m33 -21 c0 -26 -20 -25 -23 2 -3 16 1 22 10 19 7 -3 13 -12 13 -21z"/>
<path d="M1191 407 c0 -18 3 -25 6 -17 3 8 10 20 15 26 5 8 3 14 -7 18 -12 4
-15 -2 -14 -27z"/>
<path d="M1241 421 c-8 -15 -7 -23 5 -35 18 -18 30 -20 39 -6 3 5 0 7 -8 4 -8
-3 -18 -1 -22 5 -3 7 3 11 15 11 15 0 20 5 18 17 -5 25 -35 28 -47 4z m39 -1
c0 -5 -7 -10 -15 -10 -8 0 -15 5 -15 10 0 6 7 10 15 10 8 0 15 -4 15 -10z"/>
<path d="M1429 424 c-14 -17 -3 -45 22 -52 8 -2 5 3 -6 12 -20 15 -19 15 8 16
29 0 34 9 15 28 -16 16 -23 15 -39 -4z m36 -4 c3 -5 -3 -10 -15 -10 -12 0 -18
5 -15 10 3 6 10 10 15 10 5 0 12 -4 15 -10z"/>
<path d="M1495 424 c5 -10 9 -31 9 -46 1 -16 4 -28 7 -28 9 0 41 81 35 87 -2
2 -7 -5 -11 -16 -7 -24 -25 -28 -25 -7 0 8 -5 18 -12 22 -8 5 -9 2 -3 -12z"/>
<path d="M1572 428 c-16 -16 -15 -33 2 -47 22 -18 48 -2 44 28 -3 28 -27 38
-46 19z m34 -13 c3 -8 3 -19 -1 -25 -10 -16 -35 7 -28 26 7 18 22 18 29 -1z"/>
<path d="M1641 405 c1 -28 1 -28 8 -6 9 34 31 39 31 7 0 -14 5 -26 10 -26 12
0 13 30 2 47 -4 7 -18 11 -30 10 -18 -1 -22 -7 -21 -32z"/>
<path d="M1912 428 c-16 -16 -15 -33 2 -47 22 -18 48 -2 44 28 -3 28 -27 38
-46 19z m34 -13 c3 -8 3 -19 -1 -25 -10 -16 -35 7 -28 26 7 18 22 18 29 -1z"/>
<path d="M1983 411 c1 -21 8 -36 17 -39 12 -4 13 -2 3 9 -6 8 -13 25 -16 39
-4 17 -5 15 -4 -9z"/>
<path d="M2061 401 c1 -36 1 -36 8 -6 7 35 23 36 33 3 6 -19 7 -18 5 7 -2 23
-7 30 -24 31 -20 1 -23 -3 -22 -35z"/>
<path d="M2137 433 c-13 -13 -7 -51 9 -57 14 -6 15 -4 4 10 -11 12 -11 20 -2
35 11 18 3 27 -11 12z"/>
<path d="M2211 401 c2 -30 3 -32 6 -8 2 15 9 27 14 27 5 0 9 4 9 8 0 5 -7 9
-15 9 -11 0 -15 -10 -14 -36z"/>
<path d="M2262 410 c0 -19 2 -27 5 -17 2 9 2 25 0 35 -3 9 -5 1 -5 -18z"/>
<path d="M2289 419 c-10 -19 -9 -25 7 -36 21 -16 31 -16 39 -3 3 5 0 7 -8 4
-8 -3 -18 -1 -22 5 -3 7 3 11 15 11 15 0 20 5 18 17 -5 26 -35 27 -49 2z m41
1 c0 -5 -7 -10 -15 -10 -8 0 -15 5 -15 10 0 6 7 10 15 10 8 0 15 -4 15 -10z"/>
<path d="M2364 428 c-4 -6 0 -16 9 -23 22 -16 22 -29 0 -20 -14 5 -15 3 -6 -6
13 -13 43 -5 43 12 0 6 -9 13 -20 16 -25 7 -26 20 -2 26 15 4 15 5 0 6 -9 0
-20 -4 -24 -11z"/>
<path d="M2020 405 c0 -14 5 -25 10 -25 6 0 10 11 10 25 0 14 -4 25 -10 25 -5
0 -10 -11 -10 -25z"/>
</g>
</svg>
